<?xml version="1.0" encoding="UTF-8"?>
<svg id="Layer_1" data-name="Layer 1" xmlns="http://www.w3.org/2000/svg" viewBox="0 0 231.77 72">
  <defs>
    <style>
      .cls-1 {
        fill: #fff;
      }

      .cls-2 {
        fill: #13294b;
      }
    </style>
  </defs>
  <rect class="cls-2" x="89.33" width="1.05" height="72"/>
  <g>
    <path class="cls-2" d="M114.75,10.8l1.17-.13.15,3.01h-.62l-.89-2.1h-2.46v9.07l1.54.34v.6h-4.93v-.6l1.58-.34v-9.07h-2.46l-.89,2.1h-.63l.13-3.01,1.19.13h7.12Z"/>
    <path class="cls-2" d="M122.01,21l.93-.31v-4.07c-.06-1.14-.42-1.77-1.51-1.77-.86,0-1.63.6-1.82.8v5.04l1.04.31v.6h-3.69v-.6l1.04-.34v-9.85l-1.11-.39v-.5l2.71-.44v5.64c.33-.39,1.32-1.45,2.65-1.45,1.54,0,2.29.68,2.29,2.73v4.29l1.07.33v.59h-3.61v-.6Z"/>
    <path class="cls-2" d="M126.57,18.04c0-2.52,1.71-4.37,3.94-4.37,1.92,0,2.96,1.33,2.98,3.56h-5.4c0,2.08,1.17,3.28,2.85,3.28,1.37,0,2.26-1.15,2.26-1.15l.34.24c-.13.15-.93,2.26-3.32,2.26-2.72,0-3.64-2.33-3.64-3.82ZM128.14,16.52h3.53c-.02-1.09-.49-2.08-1.54-2.08-.99,0-1.77.88-1.98,2.08Z"/>
    <path class="cls-2" d="M139.12,17.44v-5.66l-1.37-.39v-.59h4.59v.59l-1.37.39v5.35c0,2.16.65,3.84,2.85,3.84s3.12-1.2,3.09-3.82l-.05-5.22-1.92-.55v-.57h4.37v.59l-1.38.41v5.58c-.02,3.04-2,4.62-4.34,4.62-3.46,0-4.47-1.82-4.47-4.55Z"/>
    <path class="cls-2" d="M149.8,21l1.02-.33v-5.46l-1.09-.24v-.5l2.21-.8h.08l.36,1.46h.03c.32-.37,1.37-1.46,2.67-1.46,1.56,0,2.29.68,2.29,2.73v4.29l1.07.33v.59h-3.59v-.6l.91-.31v-4.07c-.05-1.14-.42-1.77-1.5-1.77-.89,0-1.67.63-1.84.81v5.02l1.06.31v.6h-3.69v-.6Z"/>
    <path class="cls-2" d="M159.28,21l1.09-.34v-5.53l-.98-.31v-.63l2.57-.52v7.01l1.19.33v.6h-3.87v-.6ZM159.98,10.52c0-.59.5-1.07,1.11-1.07s1.09.49,1.09,1.07-.5,1.07-1.09,1.07c-.62,0-1.11-.49-1.11-1.07Z"/>
    <path class="cls-2" d="M167.1,21.87l-2.83-7.12-.76-.29v-.57h3.71v.57l-1.19.29,1.82,5.01c.07.2.13.42.13.42h.03s.08-.23.15-.42l1.9-4.91-1.14-.39v-.57h2.88v.57l-.76.29-2.86,7.12h-1.07Z"/>
    <path class="cls-2" d="M172.2,18.04c0-2.52,1.71-4.37,3.94-4.37,1.92,0,2.96,1.33,2.98,3.56h-5.4c0,2.08,1.17,3.28,2.85,3.28,1.37,0,2.26-1.15,2.26-1.15l.34.24c-.13.15-.93,2.26-3.32,2.26-2.72,0-3.64-2.33-3.64-3.82ZM173.78,16.52h3.53c-.02-1.09-.49-2.08-1.54-2.08-.99,0-1.77.88-1.98,2.08Z"/>
    <path class="cls-2" d="M180.43,21l1.02-.34v-5.45l-1.09-.21v-.54l2.37-.8h.08l.16,1.97h.03l.6-.8c.6-.8,1.01-1.19,1.61-1.19.57,0,.89.36.88.89,0,.52-.36.91-.59,1.19l-1.37-.5c-.31.24-.68.54-1.09,1.06v4.44l1.45.26v.62h-4.08v-.6Z"/>
    <path class="cls-2" d="M187.06,21.27l-.26-2.36h.59l.85,1.84c.28.2.62.47,1.35.47.81,0,1.37-.47,1.37-1.19,0-.6-.36-1.06-1.53-1.59l-.72-.32c-1.15-.52-1.69-1.11-1.69-2.15,0-1.3,1.35-2.33,2.91-2.33.68,0,1.38.18,2.07.52l.08,2.02h-.54l-.67-1.46c-.21-.15-.55-.39-1.12-.39-.75,0-1.2.49-1.2,1.09s.31,1.01,1.28,1.43l.75.33c1.46.63,1.94,1.33,1.94,2.26,0,1.38-1.5,2.47-3.17,2.47-.89,0-1.63-.29-2.28-.63Z"/>
    <path class="cls-2" d="M193.49,21l1.09-.34v-5.53l-.98-.31v-.63l2.57-.52v7.01l1.19.33v.6h-3.87v-.6ZM194.18,10.52c0-.59.5-1.07,1.11-1.07s1.09.49,1.09,1.07-.5,1.07-1.09,1.07c-.62,0-1.11-.49-1.11-1.07Z"/>
    <path class="cls-2" d="M199.05,19.96l.05-5.22h-1.14v-.7l1.19-.31.91-2h.59v2.16h2.15v.91h-2.11v4.5c0,1.27.5,1.37,1.12,1.37.5,0,1.14-.1,1.14-.1l.11.47s-1.01.75-2.29.75-1.72-.78-1.71-1.84Z"/>
    <path class="cls-2" d="M208.7,14.46v-.57h2.8v.57l-.73.31-3.58,8.93c-.55,1.41-.96,2.05-1.85,2.05-.59,0-1.11-.42-1.11-1.01s.39-.89.89-.89c.42,0,.68.28.88.65h.03l.89-2.1-2.96-7.64-.75-.29v-.57h3.74v.57l-1.17.29,1.95,5.53h.05l2.03-5.45-1.12-.37Z"/>
    <path class="cls-2" d="M106.37,37.69c0-2.36,1.71-4.24,3.89-4.24,2.37,0,3.89,1.48,3.89,3.93s-1.66,4.28-3.89,4.28c-2.54,0-3.89-1.85-3.89-3.97ZM110.5,40.89c1.24-.02,1.97-1.35,1.92-3.06-.03-2.31-.99-3.66-2.37-3.63-1.27.02-1.98,1.32-1.95,3.01.05,1.81.78,3.69,2.41,3.67Z"/>
    <path class="cls-2" d="M115.3,40.8l1.02-.33v-5.94h-1.15v-.7l1.15-.33v-.07c0-2.28,1.72-4.2,3.59-4.2,1.33,0,2.15.78,2.15,1.53,0,.47-.31.89-.91.89-.24,0-.44-.08-.44-.08l-.41-1.41s-.31-.18-.73-.18c-.88,0-1.64.63-1.64,2.42v1.27h2.18v.88h-2.18v5.9l1.46.33v.6h-4.1v-.6Z"/>
    <path class="cls-2" d="M133.92,41.55l-7.02-8.54.02,7.22,1.82.59v.59h-4.18v-.6l1.38-.36.02-8.68-1.54-.57v-.59h2.85l6.34,7.71-.02-6.5-1.82-.62v-.59h4.16v.6l-1.37.39v8l.03,1.95h-.67Z"/>
    <path class="cls-2" d="M136.68,37.69c0-2.36,1.71-4.24,3.89-4.24,2.37,0,3.89,1.48,3.89,3.93s-1.66,4.28-3.89,4.28c-2.54,0-3.89-1.85-3.89-3.97ZM140.81,40.89c1.24-.02,1.97-1.35,1.92-3.06-.03-2.31-.99-3.66-2.37-3.63-1.27.02-1.98,1.32-1.95,3.01.05,1.81.78,3.69,2.41,3.67Z"/>
    <path class="cls-2" d="M145.52,40.8l1.02-.34v-5.45l-1.09-.21v-.54l2.37-.8h.08l.16,1.97h.03l.6-.8c.6-.8,1.01-1.19,1.61-1.19.57,0,.89.36.88.89,0,.52-.36.91-.59,1.19l-1.37-.5c-.31.24-.68.54-1.09,1.06v4.44l1.45.26v.62h-4.08v-.6Z"/>
    <path class="cls-2" d="M153.02,39.76l.05-5.22h-1.14v-.7l1.19-.31.91-2h.59v2.16h2.15v.91h-2.11v4.5c0,1.27.5,1.37,1.12,1.37.5,0,1.14-.1,1.14-.1l.11.47s-1.01.75-2.29.75-1.72-.78-1.71-1.84Z"/>
    <path class="cls-2" d="M162.66,40.8l.93-.31v-4.07c-.06-1.14-.42-1.77-1.51-1.77-.86,0-1.63.6-1.82.8v5.04l1.04.31v.6h-3.69v-.6l1.04-.34v-9.85l-1.11-.39v-.5l2.71-.44v5.64c.33-.39,1.32-1.45,2.65-1.45,1.54,0,2.29.68,2.29,2.73v4.29l1.07.33v.59h-3.61v-.6Z"/>
    <path class="cls-2" d="M170.53,36.39c0-3.48,2.7-6.08,6.28-6.08,1.5,0,2.54.41,3.4.88l.1,2.76h-.65l-.93-2.21c-.47-.31-1.15-.59-2.05-.59-2.28,0-4.11,1.82-4.11,4.62,0,3.32,1.89,5.16,4.24,5.16.94,0,1.69-.37,2.11-.67l1.25-2.34h.65l-.42,2.78c-1.32.68-2.59,1.09-4.18,1.09-4.16,0-5.69-2.8-5.69-5.4Z"/>
    <path class="cls-2" d="M182.2,39.68c0-1.3.96-1.9,2.62-2.33l1.72-.44v-.8c-.06-1.28-.62-1.9-1.51-1.9-.44,0-.85.2-.98.28l-.06,1.63s-.44.08-.73.08c-.54,0-.83-.26-.83-.73,0-.8,1.51-1.98,3.27-1.98s2.47.78,2.47,2.46v4.26c0,.36.1.47.57.47h.76v.49s-.99.44-1.66.44c-.88,0-1.22-.59-1.25-1.3h-.05c-.85.83-1.27,1.35-2.33,1.35-.94,0-2.02-.65-2.02-1.97ZM186.54,39.68v-2.18l-1.4.47c-.81.28-1.27.59-1.27,1.25,0,.81.62,1.24,1.3,1.24s1.17-.5,1.37-.78Z"/>
    <path class="cls-2" d="M190.3,40.8l1.02-.34v-5.45l-1.09-.21v-.54l2.37-.8h.08l.16,1.97h.03l.6-.8c.6-.8,1.01-1.19,1.61-1.19.57,0,.89.36.88.89,0,.52-.36.91-.59,1.19l-1.37-.5c-.31.24-.68.54-1.09,1.06v4.44l1.45.26v.62h-4.08v-.6Z"/>
    <path class="cls-2" d="M196.53,37.69c0-2.36,1.71-4.24,3.89-4.24,2.37,0,3.89,1.48,3.89,3.93s-1.66,4.28-3.89,4.28c-2.54,0-3.89-1.85-3.89-3.97ZM200.66,40.89c1.24-.02,1.97-1.35,1.92-3.06-.03-2.31-.99-3.66-2.37-3.63-1.27.02-1.98,1.32-1.95,3.01.05,1.81.78,3.69,2.41,3.67Z"/>
    <path class="cls-2" d="M205.24,40.8l1.04-.33v-9.77l-1.07-.31v-.57l2.68-.55v11.22l1.11.31v.6h-3.76v-.6Z"/>
    <path class="cls-2" d="M209.95,40.8l1.09-.34v-5.53l-.98-.31v-.63l2.57-.52v7.01l1.19.33v.6h-3.87v-.6ZM210.65,30.33c0-.59.5-1.07,1.11-1.07s1.09.49,1.09,1.07-.5,1.07-1.09,1.07c-.62,0-1.11-.49-1.11-1.07Z"/>
    <path class="cls-2" d="M214.69,40.8l1.02-.33v-5.46l-1.09-.24v-.5l2.21-.8h.08l.36,1.46h.03c.32-.37,1.37-1.46,2.67-1.46,1.56,0,2.29.68,2.29,2.73v4.29l1.07.33v.59h-3.59v-.6l.91-.31v-4.07c-.05-1.14-.42-1.77-1.5-1.77-.89,0-1.67.63-1.84.81v5.02l1.06.31v.6h-3.69v-.6Z"/>
    <path class="cls-2" d="M224.47,39.68c0-1.3.96-1.9,2.62-2.33l1.72-.44v-.8c-.06-1.28-.62-1.9-1.51-1.9-.44,0-.85.2-.98.28l-.06,1.63s-.44.08-.73.08c-.54,0-.83-.26-.83-.73,0-.8,1.51-1.98,3.27-1.98s2.47.78,2.47,2.46v4.26c0,.36.1.47.57.47h.76v.49s-.99.44-1.66.44c-.88,0-1.22-.59-1.25-1.3h-.05c-.85.83-1.27,1.35-2.33,1.35-.94,0-2.02-.65-2.02-1.97ZM228.81,39.68v-2.18l-1.4.47c-.81.28-1.27.59-1.27,1.25,0,.81.62,1.24,1.3,1.24s1.17-.5,1.37-.78Z"/>
    <path class="cls-2" d="M106.59,59.48c0-1.3.96-1.9,2.62-2.33l1.72-.44v-.8c-.06-1.28-.62-1.9-1.51-1.9-.44,0-.85.2-.98.28l-.07,1.63s-.44.08-.73.08c-.54,0-.83-.26-.83-.73,0-.8,1.51-1.98,3.27-1.98s2.47.78,2.47,2.46v4.26c0,.36.1.47.57.47h.76v.49s-.99.44-1.66.44c-.88,0-1.22-.59-1.25-1.3h-.05c-.85.83-1.27,1.35-2.33,1.35-.94,0-2.02-.65-2.02-1.97ZM110.93,59.48v-2.18l-1.4.47c-.81.28-1.27.59-1.27,1.25,0,.81.62,1.24,1.3,1.24s1.17-.5,1.37-.78Z"/>
    <path class="cls-2" d="M115.35,59.56l.05-5.22h-1.14v-.7l1.19-.31.91-2h.59v2.16h2.15v.91h-2.11v4.5c0,1.27.5,1.37,1.12,1.37.5,0,1.14-.1,1.14-.1l.11.47s-1.01.75-2.29.75-1.72-.78-1.71-1.84Z"/>
    <path class="cls-2" d="M123.41,56.19c0-3.48,2.7-6.08,6.28-6.08,1.5,0,2.54.41,3.4.88l.1,2.76h-.65l-.93-2.21c-.47-.31-1.15-.59-2.05-.59-2.28,0-4.11,1.82-4.11,4.62,0,3.32,1.89,5.15,4.24,5.15.94,0,1.69-.37,2.11-.67l1.25-2.34h.65l-.42,2.78c-1.32.68-2.59,1.09-4.18,1.09-4.16,0-5.69-2.8-5.69-5.4Z"/>
    <path class="cls-2" d="M139.78,60.6l.93-.31v-4.06c-.06-1.14-.42-1.77-1.51-1.77-.86,0-1.63.6-1.82.8v5.04l1.04.31v.6h-3.69v-.6l1.04-.34v-9.85l-1.11-.39v-.5l2.71-.44v5.64c.33-.39,1.32-1.45,2.65-1.45,1.54,0,2.29.68,2.29,2.73v4.29l1.07.33v.59h-3.61v-.6Z"/>
    <path class="cls-2" d="M144.53,59.48c0-1.3.96-1.9,2.62-2.33l1.72-.44v-.8c-.06-1.28-.62-1.9-1.51-1.9-.44,0-.85.2-.98.28l-.06,1.63s-.44.08-.73.08c-.54,0-.83-.26-.83-.73,0-.8,1.51-1.98,3.27-1.98s2.47.78,2.47,2.46v4.26c0,.36.1.47.57.47h.76v.49s-.99.44-1.66.44c-.88,0-1.22-.59-1.25-1.3h-.05c-.85.83-1.27,1.35-2.33,1.35-.94,0-2.02-.65-2.02-1.97ZM148.87,59.48v-2.18l-1.4.47c-.81.28-1.27.59-1.27,1.25,0,.81.62,1.24,1.3,1.24s1.17-.5,1.37-.78Z"/>
    <path class="cls-2" d="M152.38,64.5l1.04-.34v-9.35l-1.09-.24v-.5l2.21-.8h.08l.33,1.33c.34-.42,1.19-1.32,2.46-1.32,1.61,0,3.11,1.06,3.11,3.69s-2.15,4.49-4.44,4.49c-.37,0-.73-.06-1.04-.16v2.85l1.56.39v.57h-4.21v-.6ZM155.03,55.04v5.06c.16.18.63.6,1.54.6,1.15,0,2.31-1.09,2.31-3.19,0-1.87-.93-3.09-2.33-3.09-.68,0-1.24.36-1.53.62Z"/>
    <path class="cls-2" d="M161.8,57.64c0-2.52,1.71-4.37,3.94-4.37,1.92,0,2.96,1.33,2.98,3.56h-5.4c0,2.08,1.17,3.28,2.85,3.28,1.37,0,2.26-1.15,2.26-1.15l.34.24c-.13.15-.93,2.26-3.32,2.26-2.72,0-3.64-2.33-3.64-3.82ZM163.38,56.13h3.53c-.02-1.09-.49-2.08-1.54-2.08-.99,0-1.77.88-1.98,2.08Z"/>
    <path class="cls-2" d="M169.81,60.6l1.04-.33v-9.77l-1.07-.31v-.57l2.68-.55v11.22l1.11.31v.6h-3.76v-.6Z"/>
    <path class="cls-2" d="M184.95,60.6l1.38-.34v-4.21h-5.2v4.21l1.38.36v.59h-4.57v-.6l1.38-.34v-8.88l-1.38-.39v-.59h4.55v.59l-1.37.39v3.8h5.2v-3.8l-1.37-.39v-.59h4.54v.59l-1.37.39v8.88l1.38.36v.59h-4.57v-.6Z"/>
    <path class="cls-2" d="M190.72,60.6l1.09-.34v-5.53l-.98-.31v-.63l2.57-.52v7.01l1.19.33v.6h-3.87v-.6ZM191.42,50.13c0-.59.5-1.07,1.11-1.07s1.09.49,1.09,1.07-.5,1.07-1.09,1.07c-.62,0-1.11-.49-1.11-1.07Z"/>
    <path class="cls-2" d="M195.4,60.6l1.04-.33v-9.77l-1.07-.31v-.57l2.68-.55v11.22l1.11.31v.6h-3.76v-.6Z"/>
    <path class="cls-2" d="M200.12,60.6l1.04-.33v-9.77l-1.07-.31v-.57l2.68-.55v11.22l1.11.31v.6h-3.76v-.6Z"/>
  </g>
  <g>
    <path class="cls-2" d="M66.22,39.96c-.24-.24-.56-.37-.89-.37-.05,0-.1,0-.14,0-.38.04-.72.26-.93.59-.53.86-1.23,1.7-2.09,2.49-.29-2.18-.43-4.42-.43-6.68s.14-4.49.43-6.68c.85.8,1.55,1.63,2.09,2.5.2.33.54.54.93.59.05,0,.1,0,.14,0,.33,0,.65-.13.89-.37l7.06-7.06c.46-.46.49-1.18.09-1.68-2-2.48-4.55-4.71-7.61-6.64.54-1.15,1.13-2.24,1.76-3.26.18-.29.23-.64.15-.97-.08-.33-.29-.61-.59-.78-2.85-1.67-5.98-3.09-9.32-4.2-.13-.04-.27-.06-.4-.06-.44,0-.86.23-1.09.62-.68,1.15-1.32,2.37-1.91,3.63-4.84-1.4-9.99-2.1-15.31-2.1-4.69,0-9.26.55-13.61,1.64l-3.16-3.56c-.24-.27-.59-.42-.94-.42-.13,0-.26.02-.38.06-3.56,1.14-6.9,2.62-9.93,4.4-.32.19-.55.52-.61.89-.05.33.03.67.23.94.61.99,1.18,2.05,1.7,3.17C4.49,21.65,0,28.65,0,36s4.49,14.35,12.37,19.34c-.54,1.15-1.13,2.24-1.76,3.25-.18.29-.23.64-.15.97.08.33.29.61.59.78,2.85,1.67,5.98,3.08,9.32,4.2.13.04.27.07.4.07.44,0,.86-.23,1.09-.62.68-1.16,1.32-2.37,1.91-3.62,4.84,1.39,9.98,2.1,15.31,2.1,4.69,0,9.26-.55,13.61-1.64l3.16,3.56c.24.27.59.42.94.42.13,0,.26-.02.39-.06,3.56-1.14,6.9-2.62,9.93-4.4.33-.19.55-.52.61-.89.05-.34-.03-.67-.23-.94-.61-.99-1.18-2.05-1.71-3.17,3.06-1.93,5.61-4.16,7.61-6.64.4-.5.37-1.23-.09-1.68l-7.06-7.06ZM28.95,34.1l13.86,15.61c-1.25.09-2.5.14-3.75.14-3.93,0-7.83-.47-11.36-1.36.85-4.05,1.28-8.24,1.28-12.5,0-.63,0-1.27-.03-1.9ZM49.17,37.9l-13.86-15.62c1.24-.09,2.5-.14,3.76-.14,3.93,0,7.83.47,11.36,1.36-.85,4.04-1.28,8.24-1.28,12.5,0,.63.01,1.26.03,1.9ZM16.38,36c0,2.25-.14,4.49-.43,6.68-1.77-1.65-3.35-3.91-3.35-6.68s1.58-5.03,3.35-6.68c.29,2.19.43,4.42.43,6.68Z"/>
    <path class="cls-1" d="M61.27,45.05c-.51-2.88-.78-5.91-.78-9.05s.27-6.18.78-9.05c1.74,1.26,3.12,2.68,4.06,4.21l7.06-7.06c-2.12-2.63-4.92-4.98-8.24-6.94.68-1.58,1.45-3.06,2.29-4.41-2.76-1.62-5.8-3-9.08-4.09-.84,1.43-1.61,2.93-2.31,4.51-4.86-1.51-10.28-2.36-15.99-2.36-4.96,0-9.7.64-14.04,1.8l-3.68-4.14c-3.5,1.12-6.75,2.57-9.67,4.29l.02.02c.84,1.35,1.6,2.82,2.28,4.39C6.17,21.77,1.26,28.5,1.26,36s4.91,14.23,12.71,18.84c-.68,1.58-1.45,3.05-2.29,4.41,2.76,1.62,5.8,3,9.08,4.09.84-1.43,1.61-2.93,2.31-4.51,4.86,1.51,10.28,2.36,15.99,2.36,4.96,0,9.7-.64,14.04-1.8l3.67,4.14c3.5-1.12,6.75-2.57,9.67-4.29l-.02-.02c-.84-1.35-1.6-2.82-2.28-4.39,3.32-1.97,6.12-4.31,8.24-6.94l-7.06-7.06c-.95,1.53-2.33,2.94-4.06,4.21ZM16.86,45.06c-3.47-2.53-5.52-5.66-5.52-9.05s2.05-6.53,5.52-9.06c.51,2.88.78,5.91.78,9.06s-.27,6.18-.78,9.05ZM39.06,51.12c-4.64,0-9.01-.62-12.85-1.72.98-4.22,1.51-8.72,1.51-13.4,0-1.85-.08-3.67-.24-5.46l17.91,20.18c-2.03.26-4.15.4-6.33.4ZM50.65,41.46l-17.92-20.18c2.03-.26,4.15-.4,6.33-.4,4.64,0,9.01.62,12.85,1.72-.98,4.21-1.51,8.72-1.51,13.4,0,1.85.08,3.67.24,5.45Z"/>
  </g>
</svg>